<svg width="14" height="20" viewBox="0 0 14 20" fill="none" xmlns="http://www.w3.org/2000/svg">
<path opacity="0.4" fill-rule="evenodd" clip-rule="evenodd" d="M5.52284 20C5.18387 20 4.90908 19.7202 4.90908 19.3751C4.90908 19.03 5.18387 18.7502 5.52284 18.7502H6.13642V17.472C3.10673 17.1936 0.541663 14.8742 0 11.875H1.22734C1.78593 14.3791 4.12235 16.25 6.75008 16.25C9.37773 16.25 11.7141 14.3791 12.2727 11.875H13.5001C12.9583 14.8742 10.3933 17.1936 7.36366 17.472V18.7502H7.97732C8.3162 18.7502 8.591 19.03 8.591 19.3751C8.591 19.7202 8.3162 20 7.97732 20H5.52284ZM6.75008 15.0001C4.3777 15.0001 2.45458 13.0414 2.45458 10.6251V4.37523C2.45458 1.95895 4.3777 0 6.75008 0C9.12229 0 11.0455 1.95895 11.0455 4.37523V10.6251C11.0455 13.0414 9.12229 15.0001 6.75008 15.0001ZM9.81824 4.37523C9.81824 2.64932 8.44454 1.25003 6.75008 1.25003C5.05553 1.25003 3.68184 2.64932 3.68184 4.37523V10.6251C3.68184 12.351 5.05553 13.7501 6.75008 13.7501C8.44454 13.7501 9.81824 12.351 9.81824 10.6251V4.37523Z" fill="black"/>
</svg>
