<svg width="0" height="0" class="hidden">
  <symbol xmlns="http://www.w3.org/2000/svg" viewBox="0 0 6 17" id="3-dots">
    <g opacity="1">
      <path d="M3.25001 7C4.21649 7 4.99997 7.78349 4.99997 8.75C4.99997 9.7165 4.21649 10.5 3.25001 10.5C2.28353 10.5 1.49997 9.7165 1.49997 8.75C1.49997 7.78349 2.28353 7 3.25001 7Z"></path>
      <path d="M3.25 1.00001C4.21648 1.00001 4.99996 1.7835 4.99996 2.75C4.99996 3.7165 4.21648 4.5 3.25 4.5C2.28353 4.5 1.49997 3.7165 1.49997 2.75C1.49997 1.7835 2.28353 1.00001 3.25 1.00001Z"></path>
      <path d="M3.25 13C4.21648 13 4.99996 13.7835 4.99996 14.75C4.99996 15.7165 4.21648 16.5 3.25 16.5C2.28353 16.5 1.49997 15.7165 1.49997 14.75C1.49997 13.7835 2.28353 13 3.25 13Z"></path>
    </g>
  </symbol>
  <symbol xmlns="http://www.w3.org/2000/svg" viewBox="0 0 14 14" id="bell">
    <path d="M9.27469 12.1334C9.05948 13.1983 8.12304 13.9999 7.00002 13.9999C5.877 13.9999 4.94056 13.1983 4.72543 12.1334H0.500032L2.35713 8.39999V4.6666C2.35713 2.08934 4.43587 -1.75238e-05 7.00002 -1.75238e-05C9.56424 -1.75238e-05 11.6429 2.08934 11.6429 4.6666V8.39999L13.5 12.1334H9.27469ZM7.00002 13.0667C7.6056 13.0667 8.11569 12.6759 8.30763 12.1334H5.6925C5.88435 12.6759 6.39444 13.0667 7.00002 13.0667ZM10.7143 8.39999V4.6666C10.7143 2.6049 9.05138 0.933346 7.00002 0.933346C4.94865 0.933346 3.28573 2.6049 3.28573 4.6666V8.39999L1.89284 11.2H12.1071L10.7143 8.39999Z"></path>
  </symbol>
  <symbol xmlns="http://www.w3.org/2000/svg" viewBox="0 0 12 20" id="clip">
    <path d="M9.34601e-05 3.75004C9.34601e-05 1.67898 2.01482 -1.19805e-05 4.50002 -1.19805e-05C6.98532 -1.19805e-05 8.99996 1.67898 8.99996 3.75004V15.0001C8.99996 16.3808 7.65681 17.4999 5.99998 17.4999C4.34315 17.4999 3 16.3808 3 15.0001V5.00006H4.50002V15.0001C4.50002 15.6904 5.17153 16.2501 5.99998 16.2501C6.82843 16.2501 7.50002 15.6904 7.50002 15.0001V3.75004C7.50002 2.3693 6.15686 1.25003 4.50002 1.25003C2.84311 1.25003 1.49996 2.3693 1.49996 3.75004V15.0001C1.49996 17.0712 3.5147 18.7501 5.99998 18.7501C8.48526 18.7501 10.5 17.0712 10.5 15.0001V2.50005H11.9999V15.625C11.6302 18.0907 9.05921 20.0001 5.99998 20.0001C2.94091 20.0001 0.369845 18.0907 -8.2016e-05 15.625L9.34601e-05 3.75004Z"></path>
  </symbol>
  <symbol xmlns="http://www.w3.org/2000/svg" viewBox="0 0 10 7" id="d-arrow">
    <path d="M8.83179 1.11001L4.76335 5.54369L0.694996 1.11001C0.539953 0.955178 0.288448 0.955178 0.133405 1.11001C-0.0218905 1.26489 -0.0218905 1.51589 0.133405 1.67072L4.4626 6.38869C4.54539 6.47128 4.65513 6.50652 4.76335 6.50094C4.87166 6.50652 4.98148 6.47128 5.06418 6.38869L9.39355 1.67072C9.54875 1.51589 9.54875 1.26489 9.39355 1.11001C9.23842 0.955178 8.98699 0.955178 8.83179 1.11001Z"></path>
  </symbol>
  <symbol xmlns="http://www.w3.org/2000/svg" viewBox="0 0 6 13" id="facebook">
    <path d="M1.49374 12.4833H3.67461V6.43104H5.19618L5.3584 4.405H3.67461C3.67461 4.405 3.67461 3.64854 3.67461 3.25095C3.67461 2.7733 3.7614 2.5842 4.17813 2.5842C4.5135 2.5842 5.3584 2.5842 5.3584 2.5842V0.481531C5.3584 0.481531 4.11396 0.481531 3.84827 0.481531C2.2254 0.481531 1.49374 1.27332 1.49374 2.78946C1.49374 4.11002 1.49374 4.405 1.49374 4.405H0.359534V6.45673H1.49374V12.4833Z"></path>
  </symbol>
  <symbol xmlns="http://www.w3.org/2000/svg" viewBox="0 0 12 12" id="in">
    <path d="M1.79959 3.6122C2.54101 3.6122 3.14208 3.00639 3.14208 2.25956C3.14208 1.51255 2.54101 0.907112 1.79959 0.907112C1.05825 0.907112 0.457187 1.51255 0.457187 2.25956C0.457187 3.00639 1.05825 3.6122 1.79959 3.6122ZM0.675475 11.9023H2.94548V4.57212H0.675475V11.9023ZM7.95728 6.41019C7.04879 6.41019 6.57406 7.02374 6.57406 8.05456V11.9023H4.39677V4.57212H6.57406V5.55941C6.57406 5.55941 7.22886 4.3483 8.78397 4.3483C10.3392 4.3483 11.4523 5.29759 11.4523 7.26101V11.9023H9.1932V8.05456C9.1932 6.99909 8.79215 6.41019 7.95728 6.41019Z"></path>
  </symbol>
      <symbol version="1.1" xml:space="preserve" xmlns="http://www.w3.org/2000/svg" xmlns:xlink="http://www.w3.org/1999/xlink" viewBox="0 0 512 512" id="instagram">
        <path d="M343.193,22H168.32C87.854,22,23,86.863,23,166.958v174.079    C23,421.137,87.854,487,168.32,487h174.873C423.66,487,490,421.137,490,341.037V166.958C490,86.863,423.66,22,343.193,22z     M446,341.037C446,397.025,399.438,443,343.193,443H168.32C112.071,443,66,397.025,66,341.037V166.958    C66,110.973,112.071,65,168.32,65h174.873C399.438,65,446,110.973,446,166.958V341.037z"></path>
        <path d="M255.756,137.947c-64.382,0-116.581,51.961-116.581,116.055    c0,64.085,52.199,116.045,116.581,116.045c64.383,0,116.58-51.96,116.58-116.045C372.336,189.908,320.139,137.947,255.756,137.947    z M255.756,326.531c-40.164,0-72.86-32.551-72.86-72.529c0-40.016,32.696-72.534,72.86-72.534    c40.162,0,72.861,32.519,72.861,72.534C328.617,293.98,295.918,326.531,255.756,326.531z"></path>
        <path d="M381.08,113.779c-8.581,0-15.538,6.924-15.538,15.463c0,8.54,6.957,15.467,15.538,15.467    c8.573,0,15.532-6.927,15.532-15.467C396.612,120.703,389.653,113.779,381.08,113.779z"></path>
  </symbol>
  <symbol xmlns="http://www.w3.org/2000/svg" viewBox="0 0 15 14" id="magnifying-glass">
    <path d="M14.3638 13.866C14.1868 14.04 13.9001 14.04 13.7231 13.866L10.0951 10.2957C9.08286 11.1041 7.79404 11.5901 6.38879 11.5901C3.13655 11.5901 0.500061 8.99556 0.500061 5.79508C0.500061 2.59454 3.13655 2.99811e-05 6.38879 2.99811e-05C9.64103 2.99811e-05 12.2776 2.59454 12.2776 5.79508C12.2776 7.29154 11.6962 8.65109 10.7499 9.67925L14.3638 13.2354C14.5407 13.4097 14.5407 13.6919 14.3638 13.866ZM6.38879 0.891621C3.63681 0.891621 1.40594 3.08689 1.40594 5.79508C1.40594 8.50324 3.63681 10.6986 6.38879 10.6986C9.14069 10.6986 11.3715 8.50324 11.3715 5.79508C11.3715 3.08689 9.14069 0.891621 6.38879 0.891621Z"></path>
  </symbol>
  <symbol xmlns="http://www.w3.org/2000/svg" viewBox="0 0 10 14" id="man">
    <path d="M7.40905 13.5H3.09086C1.66001 13.5 0.500021 12.4087 0.500021 11.0625V9.4375C0.500021 8.37039 1.23359 7.47322 2.24855 7.14305C1.69572 6.44134 1.3636 5.5425 1.3636 4.56256C1.3636 2.31885 3.10363 0.499945 5.25004 0.499945C7.39637 0.499945 9.13631 2.31885 9.13631 4.56256C9.13631 5.5425 8.8042 6.44134 8.25145 7.14305C9.26641 7.47322 9.99998 8.37039 9.99998 9.4375V11.0625C9.99998 12.4087 8.83999 13.5 7.40905 13.5ZM8.27272 4.56256C8.27272 2.76756 6.91947 1.31248 5.25004 1.31248C3.58062 1.31248 2.22735 2.76756 2.22735 4.56256C2.22735 6.35742 3.58062 7.81249 5.25004 7.81249C6.91947 7.81249 8.27272 6.35742 8.27272 4.56256ZM9.13631 9.64067C9.13631 8.77708 8.4397 8.05753 7.50594 7.86622C6.86949 8.34207 6.09218 8.62496 5.25004 8.62496C4.4079 8.62496 3.63051 8.34207 2.99406 7.86622C2.06038 8.05753 1.3636 8.77708 1.3636 9.64067V10.8594C1.3636 11.869 2.31272 12.6876 3.48348 12.6876H7.01652C8.18735 12.6876 9.13631 11.869 9.13631 10.8594V9.64067Z"></path>
  </symbol>
  <symbol xmlns="http://www.w3.org/2000/svg" viewBox="0 0 16 17" id="message">
    <path d="M8 14.4999C7.48839 14.4999 6.98962 14.4537 6.50472 14.3734L3.00005 16.5001V12.9596C1.17274 11.6767 -1.00136e-05 9.70951 -1.00136e-05 7.49994C-1.00136e-05 3.63404 3.58176 0.499972 8 0.499972C12.4183 0.499972 16 3.63404 16 7.49994C16 11.3661 12.4183 14.4999 8 14.4999ZM8 1.50014C4.13401 1.50014 0.999998 4.18641 0.999998 7.49994C0.999998 9.53322 2.18285 11.3268 3.98764 12.4121L3.9561 14.7313L6.30987 13.3165C6.85203 13.432 7.41612 13.5 8 13.5C11.866 13.5 15.0001 10.8138 15.0001 7.49994C15.0001 4.18641 11.866 1.50014 8 1.50014ZM11.5 7.00002H4.50001C4.22387 7.00002 3.99999 6.77605 3.99999 6.50006C3.99999 6.22379 4.22387 6 4.50001 6H11.5C11.7761 6 12 6.22379 12 6.50006C12 6.77605 11.7761 7.00002 11.5 7.00002ZM5.50002 9.00002H10.5C10.7762 9.00002 11.0001 9.22385 11.0001 9.49999C11.0001 9.77627 10.7762 10.0001 10.5 10.0001H5.50002C5.22382 10.0001 5.00001 9.77627 5.00001 9.49999C5.00001 9.22385 5.22382 9.00002 5.50002 9.00002Z"></path>
  </symbol>
  <symbol xmlns="http://www.w3.org/2000/svg" viewBox="0 0 14 20" id="microphone">
    <path d="M5.52284 20C5.18387 20 4.90908 19.7202 4.90908 19.3751C4.90908 19.03 5.18387 18.7502 5.52284 18.7502H6.13642V17.472C3.10673 17.1936 0.541663 14.8742 0 11.875H1.22734C1.78593 14.3791 4.12235 16.25 6.75008 16.25C9.37773 16.25 11.7141 14.3791 12.2727 11.875H13.5001C12.9583 14.8742 10.3933 17.1936 7.36366 17.472V18.7502H7.97732C8.3162 18.7502 8.591 19.03 8.591 19.3751C8.591 19.7202 8.3162 20 7.97732 20H5.52284ZM6.75008 15.0001C4.3777 15.0001 2.45458 13.0414 2.45458 10.6251V4.37523C2.45458 1.95895 4.3777 0 6.75008 0C9.12229 0 11.0455 1.95895 11.0455 4.37523V10.6251C11.0455 13.0414 9.12229 15.0001 6.75008 15.0001ZM9.81824 4.37523C9.81824 2.64932 8.44454 1.25003 6.75008 1.25003C5.05553 1.25003 3.68184 2.64932 3.68184 4.37523V10.6251C3.68184 12.351 5.05553 13.7501 6.75008 13.7501C8.44454 13.7501 9.81824 12.351 9.81824 10.6251V4.37523Z"></path>
  </symbol>
    <symbol version="1.1" xmlns="http://www.w3.org/2000/svg" viewBox="0 0 32 32" id="smile">
    <title>object</title>
    <path d="M16 32c8.837 0 16-7.163 16-16s-7.163-16-16-16-16 7.163-16 16 7.163 16 16 16zM16 3c7.18 0 13 5.82 13 13s-5.82 13-13 13-13-5.82-13-13 5.82-13 13-13zM8 10c0-1.105 0.895-2 2-2s2 0.895 2 2c0 1.105-0.895 2-2 2s-2-0.895-2-2zM20 10c0-1.105 0.895-2 2-2s2 0.895 2 2c0 1.105-0.895 2-2 2s-2-0.895-2-2zM22.003 19.602l2.573 1.544c-1.749 2.908-4.935 4.855-8.576 4.855s-6.827-1.946-8.576-4.855l2.573-1.544c1.224 2.036 3.454 3.398 6.003 3.398s4.779-1.362 6.003-3.398z"></path>
  </symbol>
  <symbol xmlns="http://www.w3.org/2000/svg" viewBox="0 0 9 15" id="r-arrow">
    <path d="M0.17559 1.99317L6.62459 7.99546L0.17559 13.9976C-0.0496299 14.2264 -0.0496299 14.5975 0.17559 14.8262C0.4009 15.0553 0.76597 15.0553 0.9912 14.8262L7.85367 8.43925C7.97383 8.31714 8.02507 8.1552 8.01697 7.99546C8.02507 7.83566 7.97383 7.67363 7.85367 7.55171L0.9912 1.16448C0.76597 0.935504 0.4009 0.935504 0.17559 1.16448C-0.0496299 1.39336 -0.0496299 1.76424 0.17559 1.99317Z"></path>
  </symbol>
  <symbol xmlns="http://www.w3.org/2000/svg" viewBox="0 0 14 15" id="settings">
    <path d="M13.5369 5.84992L12.4531 6.48092C12.5139 6.81222 12.5538 7.15072 12.5538 7.50011C12.5538 7.84934 12.5139 8.18784 12.4531 8.51916L13.5369 9.15012C13.9796 9.40783 14.1312 9.97861 13.8757 10.425L12.9501 12.0417C12.6945 12.488 12.1284 12.641 11.6857 12.3833L10.5907 11.7459C10.0792 12.1849 9.49763 12.5439 8.85126 12.7747V13.5666C8.85126 14.0821 8.43686 14.5 7.92558 14.5H6.07434C5.56322 14.5 5.14882 14.0821 5.14882 13.5666V12.7747C4.50245 12.5439 3.92091 12.1849 3.4093 11.7459L2.3144 12.3833C1.87163 12.641 1.30554 12.488 1.04994 12.0417L0.124336 10.425C-0.131248 9.97861 0.020448 9.40783 0.463136 9.15012L1.54694 8.51916C1.48619 8.18784 1.4463 7.84934 1.4463 7.50011C1.4463 7.15072 1.48619 6.81222 1.54694 6.48092L0.463136 5.84992C0.020448 5.59223 -0.131248 5.02132 0.124336 4.57504L1.04994 2.95842C1.30554 2.51196 1.87163 2.35894 2.3144 2.61677L3.4093 3.25421C3.92091 2.81499 4.50245 2.45618 5.14882 2.22547V1.43341C5.14882 0.917987 5.56322 0.500092 6.07434 0.500092H7.92558C8.43686 0.500092 8.85126 0.917987 8.85126 1.43341V2.22547C9.49763 2.45618 10.0792 2.81499 10.5907 3.25421L11.6857 2.61677C12.1284 2.35894 12.6945 2.51196 12.9501 2.95842L13.8757 4.57504C14.1312 5.02132 13.9796 5.59223 13.5369 5.84992ZM12.8427 4.63746L12.3799 3.82914C12.252 3.60606 11.969 3.52944 11.7477 3.65837L10.4618 4.40701C9.80906 3.66462 8.92702 3.13209 7.92558 2.9271V1.90004C7.92558 1.6423 7.71838 1.43341 7.4628 1.43341H6.5372C6.28152 1.43341 6.07434 1.6423 6.07434 1.90004V2.9271C5.07298 3.13209 4.19094 3.66462 3.5383 4.40701L2.2524 3.65837C2.03101 3.52944 1.74797 3.60606 1.62013 3.82914L1.15741 4.63746C1.02957 4.86068 1.10542 5.1462 1.32672 5.27499L2.61781 6.02659C2.46402 6.49078 2.37189 6.98356 2.37189 7.50011C2.37189 8.01652 2.46402 8.50924 2.61781 8.97354L1.32672 9.72507C1.10542 9.85402 1.02957 10.1394 1.15741 10.3626L1.62013 11.1708C1.74797 11.394 2.03101 11.4705 2.2524 11.3416L3.53822 10.5931C4.19094 11.3355 5.07298 11.868 6.07434 12.073V13.1001C6.07434 13.3578 6.28152 13.5666 6.5372 13.5666H7.4628C7.71838 13.5666 7.92558 13.3578 7.92558 13.1001V12.073C8.92702 11.868 9.80906 11.3355 10.4618 10.5931L11.7477 11.3416C11.969 11.4705 12.252 11.394 12.3799 11.1708L12.8427 10.3626C12.9705 10.1394 12.8946 9.85402 12.6733 9.72507L11.3822 8.97354C11.5361 8.50924 11.6281 8.01652 11.6281 7.50011C11.6281 6.98356 11.5361 6.49078 11.3822 6.02659L12.6733 5.27499C12.8946 5.1462 12.9705 4.86068 12.8427 4.63746ZM7 9.83328C5.72194 9.83328 4.68595 8.78867 4.68595 7.50011C4.68595 6.21127 5.72194 5.16666 7 5.16666C8.27798 5.16666 9.31405 6.21127 9.31405 7.50011C9.31405 8.78867 8.27798 9.83328 7 9.83328ZM7 6.10003C6.23322 6.10003 5.61162 6.72683 5.61162 7.50011C5.61162 8.2732 6.23322 8.89991 7 8.89991C7.76678 8.89991 8.38838 8.2732 8.38838 7.50011C8.38838 6.72683 7.76678 6.10003 7 6.10003Z"></path>
  </symbol>
  <symbol xmlns="http://www.w3.org/2000/svg" viewBox="0 0 15 14" id="star">
    <path d="M11.0064 8.93379L11.8336 14L7.50002 11.6071L3.16648 14L3.99359 8.93379L0.50003 5.35675L5.32924 4.62L7.50002 5.50151e-05L9.67088 4.62L14.5 5.35675L11.0064 8.93379ZM9.12831 5.38874L7.50002 1.88675L5.8572 5.38874L2.07224 5.88107L4.87029 8.73728L4.24995 12.4141L7.50002 10.5919L10.7091 12.4279L10.1297 8.75103L12.9004 5.92385L9.12831 5.38874Z"></path>
  </symbol>
  <symbol xmlns="http://www.w3.org/2000/svg" viewBox="0 0 13 10" id="twitter">
    <path d="M0.96691 8.97588C2.05697 9.62061 3.35155 9.99688 4.74228 9.99688C9.31531 9.99688 11.8986 6.43349 11.7431 3.23743C12.2241 2.91719 12.6418 2.51698 12.9719 2.06117C12.5301 2.24194 12.0554 2.3642 11.5573 2.41895C12.0657 2.13808 12.4563 1.69267 12.6402 1.16186C12.1643 1.42231 11.6371 1.61152 11.0762 1.71327C10.6271 1.27162 9.98706 0.995726 9.27843 0.995726C7.68886 0.995726 6.52019 2.36448 6.87909 3.78608C4.83215 3.69115 3.01736 2.78649 1.80287 1.41177C1.15767 2.43306 1.46817 3.76934 2.56507 4.44535C2.16119 4.43368 1.78126 4.33125 1.44914 4.16125C1.42268 5.21397 2.24014 6.1984 3.42473 6.41822C3.07811 6.50501 2.6985 6.52504 2.31273 6.45704C2.62591 7.35969 3.53564 8.01649 4.61327 8.03484C3.57795 8.78376 2.27368 9.11817 0.96691 8.97588Z"></path>
  </symbol>
</svg>